<svg role="img" aria-labelledby="bodybio-logo" xmlns="http://www.w3.org/2000/svg" width="126" height="25" viewBox="0 0 126 25" fill="blue">
  <title id="bodybio-logo">BodyBio Logo</title>
  <path d="M64.712 16.3638L61.8442 22.5126C61.6127 23.0088 61.9751 23.5783 62.5231 23.5783H64.9249C65.3616 23.5783 65.7581 23.3253 65.9427 22.9297L75.9342 1.50414C76.1657 1.00794 75.8033 0.438477 75.2553 0.438477H72.8534C72.4168 0.438477 72.0202 0.691461 71.8356 1.08705L67.9803 9.35447C67.7117 9.93077 66.8922 9.93077 66.6226 9.35447L62.7673 1.08705C62.5826 0.691461 62.1861 0.438477 61.7495 0.438477H59.3476C58.7996 0.438477 58.4372 1.00696 58.6687 1.50414L64.712 14.465C64.9923 15.0666 64.9923 15.7621 64.712 16.3638Z" fill="#2E6BED"/>
  <path d="M49.0198 23.5724H44.3889C43.8663 23.5724 43.4424 23.1485 43.4424 22.6259V1.38595C43.4424 0.863373 43.8663 0.439453 44.3889 0.439453H49.0198C55.1285 0.439453 60.0808 5.3917 60.0808 11.5004V12.5124C60.0808 18.6211 55.1285 23.5734 49.0198 23.5734V23.5724ZM47.9639 19.6819H49.0198C52.9796 19.6819 56.1893 16.4722 56.1893 12.5124V11.5004C56.1893 7.5406 52.9796 4.33092 49.0198 4.33092H47.9639C47.6152 4.33092 47.3329 4.61321 47.3329 4.96192V19.0509C47.3329 19.3996 47.6152 19.6819 47.9639 19.6819Z" fill="#2E6BED"/>
  <path d="M13.2812 10.1498C14.1779 9.01968 14.678 7.56038 14.5627 5.98484C14.3322 2.83084 11.6041 0.439697 8.44128 0.439697H0.946494C0.42392 0.439697 0 0.863617 0 1.38619V22.6261C0 23.1487 0.42392 23.5726 0.946494 23.5726H8.47547C12.4978 23.5726 15.9283 20.4772 16.1412 16.4607C16.277 13.9045 15.1263 11.6062 13.2812 10.1498ZM4.52149 4.33019H8.51259C9.58118 4.33019 10.5355 5.16142 10.6713 6.31206C10.8354 7.70201 9.83709 8.89172 8.58682 8.89172H4.52149C4.17278 8.89172 3.89049 8.58502 3.89049 8.20701V5.01393C3.89049 4.63592 4.17278 4.32921 4.52149 4.32921V4.33019ZM8.52626 19.6821H4.52149C4.17278 19.6821 3.89049 19.3999 3.89049 19.0512V13.0557C3.89049 12.707 4.17278 12.4247 4.52149 12.4247H8.63273C10.7494 12.4247 12.448 14.2454 12.2448 16.4031C12.068 18.2834 10.4153 19.6821 8.52626 19.6821Z" fill="#2E6BED"/>
  <path d="M29.3932 0.00195355C29.3815 0.00195355 29.3698 0 29.359 0C22.7258 0 17.3496 5.37714 17.3496 12.0094C17.3496 12.0212 17.3516 12.0329 17.3516 12.0446C17.3701 18.6603 22.7385 24.0189 29.359 24.0189C29.3708 24.0189 29.3815 24.0169 29.3932 24.0169C35.9982 23.9984 41.347 18.6486 41.3656 12.0446C41.3656 12.0329 41.3675 12.0212 41.3675 12.0104C41.3675 5.38886 36.0089 0.0205123 29.3932 0.00195355ZM23.98 5.22867C24.4937 4.71489 25.325 4.71489 25.8388 5.22867C26.3516 5.74246 26.3516 6.57369 25.8388 7.08747C25.325 7.60126 24.4937 7.60126 23.98 7.08747C23.4662 6.57369 23.4662 5.74246 23.98 5.22867ZM21.7431 16.4538L21.7138 16.4245C20.2526 14.931 20.2653 12.5144 21.7431 11.0366C22.5109 10.2688 23.5316 9.87226 24.6168 9.91914C26.6768 10.009 28.4819 8.57412 28.9088 6.50825C29.0006 6.06088 29.2213 5.65259 29.5476 5.32733C30.4638 4.41111 31.9543 4.41111 32.8706 5.32733C32.9067 5.36347 32.9419 5.40156 32.977 5.44063C33.7594 6.32754 33.7438 7.70479 32.9419 8.57705C32.6 8.94921 32.1595 9.19633 31.6711 9.29303C29.6296 9.69546 28.2035 11.5093 28.2807 13.6055C28.3217 14.7219 27.8734 15.7993 27.0519 16.5612C25.5633 17.9394 23.1819 17.8916 21.7441 16.4538H21.7431ZM30.1327 20.3677C29.5808 20.9196 28.687 20.9196 28.1352 20.3677C27.5833 19.8158 27.5833 18.9221 28.1352 18.3702C28.687 17.8183 29.5808 17.8183 30.1327 18.3702C30.6845 18.9221 30.6845 19.8158 30.1327 20.3677ZM37.7827 9.84686C37.2309 10.3987 36.3371 10.3987 35.7852 9.84686C35.2334 9.29498 35.2334 8.40123 35.7852 7.84936C36.3371 7.29748 37.2309 7.29748 37.7827 7.84936C38.3346 8.40123 38.3346 9.29498 37.7827 9.84686ZM36.3293 17.2801C34.9775 18.4737 32.9135 18.3448 31.7209 16.9929C30.5273 15.6411 30.6562 13.5772 32.0081 12.3845C33.3599 11.1909 35.4238 11.3198 36.6165 12.6717C37.8101 14.0235 37.6812 16.0875 36.3293 17.2801Z" fill="#2E6BED"/>
  <path d="M98.7595 0.442627H96.4074C95.9823 0.442627 95.6377 0.787232 95.6377 1.21233V22.8068C95.6377 23.2319 95.9823 23.5765 96.4074 23.5765H98.7595C99.1846 23.5765 99.5292 23.2319 99.5292 22.8068V1.21233C99.5292 0.787232 99.1846 0.442627 98.7595 0.442627Z" fill="#2E6BED"/>
  <path d="M113.992 24.0179C107.37 24.0179 101.982 18.631 101.982 12.0094C101.982 5.38789 107.37 0 113.992 0C120.613 0 126 5.38691 126 12.0094C126 18.632 120.613 24.0179 113.992 24.0179ZM113.992 3.89147C109.515 3.89147 105.874 7.53288 105.874 12.0094C105.874 16.486 109.515 20.1274 113.992 20.1274C118.468 20.1274 122.11 16.486 122.11 12.0094C122.11 7.53288 118.468 3.89147 113.992 3.89147Z" fill="#2E6BED"/>
  <path d="M90.5556 10.1498C91.4523 9.01968 91.9524 7.56038 91.8371 5.98484C91.6066 2.83084 88.8785 0.439697 85.7157 0.439697H78.2199C77.6974 0.439697 77.2734 0.863617 77.2734 1.38619V22.6261C77.2734 23.1487 77.6974 23.5726 78.2199 23.5726H85.7489C89.7713 23.5726 93.2017 20.4772 93.4146 16.4607C93.5504 13.9045 92.3998 11.6062 90.5546 10.1498H90.5556ZM81.7959 4.33019H85.787C86.8556 4.33019 87.8099 5.16142 87.9457 6.31206C88.1098 7.70201 87.1115 8.89172 85.8612 8.89172H81.7959C81.4472 8.89172 81.1649 8.58502 81.1649 8.20701V5.01393C81.1649 4.63592 81.4472 4.32921 81.7959 4.32921V4.33019ZM85.8007 19.6821H81.7959C81.4472 19.6821 81.1649 19.3999 81.1649 19.0512V13.0557C81.1649 12.707 81.4472 12.4247 81.7959 12.4247H85.9071C88.0238 12.4247 89.7224 14.2454 89.5193 16.4031C89.3425 18.2834 87.6898 19.6821 85.8007 19.6821Z" fill="#2E6BED"/>
</svg>
